<svg width="50" height="50" viewBox="0 0 50 50" fill="none" xmlns="http://www.w3.org/2000/svg">
<path d="M30.9178 28.2528C29.6827 28.2528 28.5944 28.8495 27.9108 29.7569L22.0007 26.7847C22.0988 26.4562 22.1678 26.1158 22.1678 25.7565C22.1678 25.2693 22.0661 24.8061 21.8904 24.3801L28.0756 20.7245C28.7639 21.5179 29.7757 22.0326 30.9178 22.0326C32.9857 22.0326 34.6678 20.3805 34.6678 18.3495C34.6678 16.3186 32.9857 14.6665 30.9178 14.6665C28.8499 14.6665 27.1678 16.3186 27.1678 18.3495C27.1678 18.8176 27.2659 19.2615 27.4287 19.6737L21.2251 23.34C20.5373 22.5701 19.5402 22.0735 18.4178 22.0735C16.3499 22.0735 14.6678 23.7256 14.6678 25.7565C14.6678 27.7875 16.3499 29.4396 18.4178 29.4396C19.6732 29.4396 20.7799 28.8254 21.4609 27.8924L27.3516 30.855C27.2431 31.199 27.1678 31.5573 27.1678 31.9359C27.1678 33.9668 28.8499 35.6189 30.9178 35.6189C32.9857 35.6189 34.6678 33.9668 34.6678 31.9359C34.6678 29.9049 32.9857 28.2528 30.9178 28.2528Z" fill="white"/>
<circle cx="24.619" cy="24.619" r="24.0595" stroke="white" stroke-opacity="0.18" stroke-width="1.11905"/>
</svg>
