<svg width="47" height="47" viewBox="0 0 47 47" fill="none" xmlns="http://www.w3.org/2000/svg">
<path d="M30.7498 18.9678C30.7498 12.4711 25.4645 7.18577 18.9678 7.18577C12.4711 7.18577 7.18577 12.4711 7.18577 18.9678C7.18577 25.4645 12.4711 30.7498 18.9678 30.7498C25.4645 30.7498 30.7498 25.4645 30.7498 18.9678ZM18.9678 29.2439C13.3016 29.2439 8.69179 24.6341 8.69179 18.9679C8.69179 13.3017 13.3016 8.69188 18.9678 8.69188C24.634 8.69188 29.2438 13.3017 29.2438 18.9679C29.2438 24.6341 24.634 29.2439 18.9678 29.2439ZM18.9488 10.963C14.5945 10.963 11.052 14.5055 11.052 18.8597C11.052 23.214 14.5945 26.7564 18.9488 26.7564C23.3031 26.7564 26.8455 23.214 26.8455 18.8597C26.8455 14.5055 23.3031 10.963 18.9488 10.963ZM18.9488 25.2503C15.4249 25.2503 12.558 22.3834 12.558 18.8597C12.558 15.3358 15.4249 12.469 18.9488 12.469C22.4727 12.469 25.3395 15.3359 25.3395 18.8597C25.3394 22.3835 22.4726 25.2503 18.9488 25.2503ZM23.6295 15.2766C22.8444 14.4916 21.5673 14.4915 20.7824 15.2766L17.8597 18.1991L17.1152 17.4545C16.736 17.0753 16.2303 16.8663 15.6916 16.8664C15.1528 16.8664 14.6472 17.0754 14.268 17.4546C13.4831 18.2396 13.4831 19.5168 14.268 20.3018L16.2283 22.262C16.7354 22.7691 17.3432 23.0263 17.9272 23.0263C18.4319 23.0263 18.919 22.8342 19.308 22.4452L23.6294 18.1237C24.0087 17.7444 24.2177 17.2388 24.2177 16.7C24.2177 16.1613 24.0088 15.6558 23.6295 15.2766ZM22.5645 17.0588L18.243 21.3803C17.8875 21.7358 17.4261 21.33 17.2932 21.1971L15.333 19.2368C15.1387 19.0424 15.1387 18.7139 15.333 18.5195C15.4278 18.4246 15.5552 18.3725 15.6917 18.3725C15.8283 18.3725 15.9557 18.4247 16.0505 18.5195L17.3273 19.7964C17.4686 19.9376 17.66 20.0169 17.8598 20.0169C18.0595 20.0169 18.2509 19.9376 18.3921 19.7964L21.8473 16.3414C21.9421 16.2466 22.0694 16.1944 22.2059 16.1944C22.3424 16.1944 22.4699 16.2466 22.5647 16.3415C22.6596 16.4363 22.7118 16.5636 22.7118 16.7001C22.7117 16.8366 22.6595 16.964 22.5645 17.0588ZM46.0072 33.406L44.6424 32.8807C44.4369 32.1532 44.147 31.4537 43.7771 30.7931L44.3712 29.4558C44.4976 29.1712 44.4358 28.838 44.2154 28.6177L42.2219 26.6244C42.0017 26.4041 41.6687 26.3422 41.3839 26.4686L40.0459 27.0628C39.3854 26.693 38.6865 26.4031 37.9593 26.1977L37.4338 24.8325C37.322 24.5419 37.0426 24.35 36.7311 24.35H34.434C34.5706 23.9576 34.6932 23.5599 34.7995 23.1572L37.4533 22.1357C37.744 22.0239 37.9358 21.7445 37.9358 21.433V16.5028C37.9358 16.1913 37.744 15.912 37.4533 15.8001L34.8001 14.7789C34.4259 13.3617 33.8636 12.005 33.1244 10.7365L34.2791 8.13672C34.4055 7.85209 34.3437 7.51888 34.1234 7.29863L30.6371 3.81248C30.4168 3.59223 30.0839 3.53029 29.7991 3.6567L27.1984 4.81172C25.9296 4.07246 24.5737 3.51024 23.1572 3.13628L22.1356 0.48249C22.0238 0.191735 21.7444 0 21.4329 0H16.5027C16.1912 0 15.9119 0.191829 15.8 0.48249L14.7784 3.13628C13.3618 3.51034 12.006 4.07246 10.7372 4.81172L8.13663 3.6567C7.8519 3.53029 7.51888 3.59223 7.29853 3.81248L3.81229 7.29872C3.59204 7.51897 3.5302 7.85209 3.65661 8.13682L4.81153 10.7371C4.07227 12.0058 3.51005 13.3618 3.136 14.7787L0.48249 15.8001C0.191829 15.9119 0 16.1913 0 16.5028V21.433C0 21.7445 0.191829 22.0238 0.48249 22.1357L3.13562 23.157C3.50987 24.5744 4.07217 25.9309 4.81144 27.1994L3.6567 29.7992C3.53029 30.0838 3.59213 30.4169 3.81239 30.6373L7.29863 34.1234C7.51898 34.3437 7.8519 34.4053 8.13672 34.2791L10.7374 33.1241C12.0063 33.8633 13.3623 34.4256 14.7787 34.7995L15.8002 37.4533C15.912 37.744 16.1914 37.9358 16.5029 37.9358H21.4332C21.7447 37.9358 22.024 37.744 22.1359 37.4533L23.1571 34.8002C23.4928 34.7115 23.8247 34.611 24.1534 34.5013V36.9279C24.1534 37.2395 24.3452 37.5187 24.636 37.6306L26.0007 38.156C26.2064 38.8836 26.4963 39.583 26.866 40.2433L26.2719 41.5807C26.1455 41.8654 26.2073 42.1985 26.4277 42.4188L28.4212 44.4122C28.6414 44.6324 28.9744 44.6941 29.2592 44.5679L30.5972 43.9737C31.2577 44.3436 31.9566 44.6334 32.6838 44.8388L33.2093 46.2041C33.3211 46.4948 33.6005 46.6866 33.912 46.6866H36.7311C37.0426 46.6866 37.3219 46.4948 37.4338 46.2041L37.9591 44.8393C38.6866 44.6338 39.3859 44.3439 40.0466 43.9739L41.3839 44.568C41.6685 44.6945 42.0017 44.6327 42.222 44.4123L44.2155 42.4188C44.4358 42.1985 44.4976 41.8654 44.3712 41.5807L43.777 40.2428C44.1469 39.5822 44.4368 38.8831 44.642 38.1561L46.0073 37.6306C46.298 37.5188 46.4898 37.2395 46.4898 36.9279V34.1089C46.4897 33.7973 46.2979 33.5179 46.0072 33.406ZM22.4203 33.4325C22.1787 33.4899 21.981 33.6628 21.8918 33.8945L20.916 36.4298H17.0199L16.0438 33.8938C15.9546 33.6622 15.7569 33.4893 15.5155 33.4319C13.9851 33.0677 12.5277 32.4635 11.1838 31.636C10.9722 31.5058 10.7101 31.4884 10.4834 31.5891L7.99789 32.6928L5.24282 29.9378L6.34635 27.4533C6.44707 27.2263 6.42956 26.9642 6.29929 26.7528C5.47211 25.4095 4.86773 23.9519 4.50318 22.4202C4.44576 22.1786 4.27294 21.981 4.04121 21.8918L1.50592 20.9159V17.0199L4.04158 16.0439C4.27332 15.9547 4.44614 15.757 4.50355 15.5155C4.86792 13.9845 5.47211 12.527 6.29938 11.1837C6.42965 10.9722 6.44716 10.7101 6.34645 10.4832L5.24291 7.99798L7.99789 5.24291L10.4833 6.34673C10.71 6.44735 10.9723 6.42994 11.1837 6.29967C12.5272 5.47239 13.9846 4.8682 15.5153 4.50393C15.7567 4.44642 15.9545 4.2736 16.0436 4.04187L17.0198 1.50602H20.9159L21.8921 4.04196C21.9812 4.2736 22.179 4.44651 22.4204 4.50402C23.9509 4.86829 25.4083 5.47249 26.752 6.29976C26.9636 6.43003 27.2257 6.44744 27.4524 6.34682L29.9378 5.24301L32.6929 7.99798L31.5894 10.4825C31.4886 10.7095 31.5061 10.9716 31.6364 11.183C32.4637 12.5264 33.068 13.984 33.4324 15.5155C33.4899 15.7571 33.6627 15.9548 33.8944 16.044L36.4298 17.0199V20.916L33.8938 21.8921C33.6622 21.9812 33.4893 22.1789 33.4319 22.4204C33.0902 23.8558 32.5371 25.227 31.7872 26.5004C31.379 26.6605 30.9813 26.8478 30.5971 27.063L29.2591 26.4688C28.9743 26.3423 28.6413 26.4041 28.421 26.6246L26.4276 28.6179C26.2073 28.8382 26.1455 29.1713 26.2719 29.456L26.866 30.7939C26.67 31.1438 26.4973 31.5047 26.347 31.8746C25.1171 32.5793 23.7982 33.1045 22.4203 33.4325ZM44.9837 36.4107L43.7402 36.8893C43.5084 36.9784 43.3356 37.1762 43.2781 37.4177C43.078 38.2592 42.7457 39.0608 42.2905 39.8001C42.1604 40.0117 42.1429 40.2736 42.2436 40.5005L42.7849 41.7193L41.5227 42.9815L40.3044 42.4404C40.0776 42.3397 39.8155 42.3572 39.6039 42.4874C38.8648 42.9426 38.0632 43.2749 37.2211 43.4752C36.9796 43.5327 36.7818 43.7055 36.6927 43.9373L36.214 45.1805H34.4289L33.9503 43.937C33.8612 43.7053 33.6634 43.5324 33.422 43.475C32.5803 43.2746 31.7787 42.9424 31.0396 42.4873C30.828 42.357 30.5659 42.3396 30.3392 42.4403L29.1203 42.9816L27.8581 41.7195L28.3992 40.5012C28.4999 40.2743 28.4824 40.0122 28.3522 39.8007C27.8973 39.0621 27.565 38.2604 27.3643 37.4177C27.3069 37.1762 27.134 36.9785 26.9023 36.8894L25.6593 36.411V34.6259L26.9026 34.1473C27.1344 34.0582 27.3072 33.8604 27.3646 33.619C27.565 32.777 27.8973 31.9755 28.3524 31.2365C28.4825 31.0251 28.5 30.763 28.3993 30.5361L27.8581 29.3173L29.1202 28.0552L30.3391 28.5965C30.5658 28.6973 30.8281 28.6798 31.0395 28.5496C31.7786 28.0944 32.5801 27.7621 33.4218 27.5618C33.6633 27.5043 33.8611 27.3315 33.9502 27.0997L34.4289 25.8562H36.214L36.6926 27.0996C36.7817 27.3314 36.9795 27.5042 37.221 27.5617C38.0627 27.762 38.8643 28.0944 39.6032 28.5494C39.8148 28.6798 40.077 28.697 40.3037 28.5964L41.5226 28.0551L42.7848 29.3172L42.2437 30.5355C42.143 30.7625 42.1605 31.0245 42.2907 31.236C42.7457 31.9749 43.0781 32.7766 43.2786 33.6189C43.336 33.8604 43.5088 34.0582 43.7406 34.1473L44.9836 34.6259L44.9837 36.4107ZM35.3214 29.7979C32.1672 29.7979 29.6011 32.3641 29.6011 35.5182C29.6011 38.6722 32.1673 41.2384 35.3214 41.2384C38.4756 41.2384 41.0417 38.6722 41.0417 35.5182C41.0417 32.3641 38.4756 29.7979 35.3214 29.7979ZM35.3214 39.7325C32.9976 39.7325 31.1071 37.842 31.1071 35.5183C31.1071 33.1946 32.9977 31.3041 35.3214 31.3041C37.6451 31.3041 39.5357 33.1946 39.5357 35.5183C39.5357 37.842 37.6452 39.7325 35.3214 39.7325Z" fill="#008DD2"/>
</svg>
