<svg width="24" height="17" viewBox="0 0 24 17" fill="none" xmlns="http://www.w3.org/2000/svg">
<path d="M15.092 9.15234L13.1412 11.1097C12.3501 11.9035 10.9582 11.9207 10.1501 11.1097L8.1992 9.15234L1.19263 16.1817C1.45344 16.3023 1.74099 16.3742 2.0467 16.3742H21.2445C21.5502 16.3742 21.8377 16.3024 22.0984 16.1817L15.092 9.15234Z" fill="#008DD2"/>
<path d="M21.2447 0H2.04686C1.74115 0 1.45359 0.0719692 1.19287 0.19257L8.67989 7.70443C8.68039 7.70493 8.68098 7.70502 8.68148 7.70552C8.68198 7.70602 8.68207 7.7067 8.68207 7.7067L11.1165 10.1492C11.3751 10.4078 11.9165 10.4078 12.1751 10.1492L14.6091 7.70711C14.6091 7.70711 14.6097 7.70602 14.6102 7.70552C14.6102 7.70552 14.6112 7.70493 14.6117 7.70443L22.0986 0.192524C21.8379 0.0718783 21.5504 0 21.2447 0Z" fill="#008DD2"/>
<path d="M0.217727 1.14453C0.0827963 1.4174 0 1.72028 0 2.04474V14.3277C0 14.6522 0.0827054 14.9551 0.217682 15.2279L7.2364 8.18645L0.217727 1.14453Z" fill="#008DD2"/>
<path d="M23.0739 1.14453L16.0553 8.18654L23.0739 15.2281C23.2089 14.9552 23.2917 14.6523 23.2917 14.3278V2.04483C23.2917 1.72028 23.2089 1.4174 23.0739 1.14453Z" fill="#008DD2"/>
</svg>
