<svg width="13" height="13" viewBox="0 0 13 13" fill="none" xmlns="http://www.w3.org/2000/svg">
<path d="M1.56494 0C0.618682 0 0 0.62136 0 1.43805C0 2.23671 0.600251 2.87579 1.52863 2.87579H1.54659C2.51135 2.87579 3.11176 2.23671 3.11176 1.43805C3.09372 0.62136 2.51135 0 1.56494 0Z" fill="white"/>
<path d="M0.163086 4.01172H2.92939V12.3343H0.163086V4.01172Z" fill="white"/>
<path d="M9.72081 3.81641C8.22849 3.81641 7.22781 5.2187 7.22781 5.2187V4.01174H4.46143V12.3343H7.22765V7.68665C7.22765 7.43784 7.24569 7.18942 7.31878 7.0115C7.51876 6.51466 7.97385 5.99995 8.73809 5.99995C9.73908 5.99995 10.1394 6.76316 10.1394 7.88198V12.3343H12.9055V7.56229C12.9055 5.00596 11.5407 3.81641 9.72081 3.81641Z" fill="white"/>
</svg>
