<svg width="20" height="14" viewBox="0 0 20 14" fill="none" xmlns="http://www.w3.org/2000/svg">
<g clip-path="url(#clip0_2038_10964)">
<path d="M9.62614 13.9135H9.621C9.04003 13.9095 3.90404 13.8627 2.4489 13.4691C1.43196 13.1958 0.629183 12.3939 0.355079 11.3768C-0.0256698 9.94736 -0.00143232 7.1953 0.00121177 6.97555C-0.00128542 6.75683 -0.0258167 3.982 0.353904 2.54082L0.355079 2.53671C0.626098 1.53122 1.44694 0.704503 2.44641 0.430399C2.4489 0.429665 2.45155 0.429077 2.45405 0.428343C3.89272 0.0502378 9.03886 0.00396615 9.621 0H9.63143C10.2139 0.00396615 15.3635 0.0508253 16.8053 0.444942C17.8196 0.717577 18.6218 1.51844 18.8966 2.53421C19.2916 3.97642 19.255 6.75727 19.2511 6.992C19.2539 7.22321 19.2769 9.95059 18.8984 11.3872L18.8973 11.3913C18.6231 12.4084 17.8205 13.2103 16.8023 13.484L16.7982 13.4852C15.3597 13.8631 10.2134 13.9094 9.63143 13.9135H9.62614ZM1.80786 2.92657C1.47353 4.19867 1.50511 6.93809 1.50541 6.96571V6.98554C1.49542 7.74528 1.53052 9.94545 1.80801 10.9875C1.94256 11.4865 2.33844 11.8818 2.84052 12.0168C3.91417 12.3072 8.09727 12.3986 9.62614 12.4093C11.159 12.3986 15.3482 12.3097 16.414 12.0309C16.9144 11.8955 17.309 11.5015 17.4444 11.0019C17.7222 9.94457 17.757 7.75512 17.7469 7.00023C17.7469 6.9923 17.7469 6.98436 17.747 6.97643C17.7608 6.20759 17.7337 3.98171 17.4457 2.93127L17.445 2.92818C17.3099 2.42698 16.9138 2.03169 16.4118 1.89669C15.3485 1.60599 11.1587 1.51492 9.62614 1.50419C8.09433 1.51492 3.90918 1.60364 2.84023 1.88215C2.34769 2.01876 1.94286 2.42816 1.80786 2.92657ZM7.70903 10.0026V3.91076L12.9737 6.95675L7.70903 10.0026Z" fill="white"/>
</g>
<defs>
<clipPath id="clip0_2038_10964">
<rect width="20" height="14" fill="white"/>
</clipPath>
</defs>
</svg>
